<svg version="1.1" id="Layer_1" xmlns="http://www.w3.org/2000/svg" xmlns:xlink="http://www.w3.org/1999/xlink" x="0px" y="0px"
	 width="100%" viewBox="0 0 1024 1024" enable-background="new 0 0 1024 1024" xml:space="preserve">
<path fill="#F5F8F6" opacity="1.000000" stroke="none" 
	d="
M592.000000,1025.000000 
	C394.666656,1025.000000 197.833328,1025.000000 1.000000,1025.000000 
	C1.000000,683.666687 1.000000,342.333344 1.000000,1.000000 
	C342.333344,1.000000 683.666687,1.000000 1025.000000,1.000000 
	C1025.000000,342.333344 1025.000000,683.666687 1025.000000,1025.000000 
	C880.833313,1025.000000 736.666687,1025.000000 592.000000,1025.000000 
M67.924911,609.499207 
	C67.987968,609.656799 68.051018,609.814331 68.006012,610.537476 
	C68.174141,611.073853 68.342270,611.610229 68.600227,612.967896 
	C75.188423,634.414795 80.355591,656.426331 88.613144,677.209961 
	C122.624268,762.813354 177.599838,832.332214 253.660675,884.315369 
	C359.951843,956.959229 476.902588,980.199463 603.046204,955.308838 
	C666.159668,942.855286 723.634277,916.645935 775.584167,878.672180 
	C832.182007,837.300781 877.021179,785.648804 909.861389,723.642212 
	C932.173157,681.514771 947.048828,636.913025 955.298401,589.968750 
	C964.214294,539.233398 964.486450,488.474152 955.607422,437.834381 
	C941.440613,357.037994 907.871948,285.064850 855.098572,222.195297 
	C805.103760,162.635895 743.582825,118.972328 671.095215,91.147896 
	C600.360168,63.996181 527.127747,56.271641 452.055054,65.882866 
	C389.959229,73.832718 331.984467,94.041443 278.422699,126.298531 
	C209.180588,167.998993 154.700928,224.287643 115.033920,294.781097 
	C92.584076,334.677429 76.634407,377.030304 67.124878,422.539276 
	C64.419975,440.964661 60.933914,459.316559 59.191620,477.832520 
	C56.518978,506.235718 56.947155,534.749695 60.173920,563.121216 
	C61.541599,575.146667 64.014214,587.046448 65.912125,599.504639 
	C65.972694,599.662231 66.033272,599.819824 65.995720,600.634155 
	C66.262154,601.449402 66.528595,602.264709 66.760078,603.733765 
	C66.871323,604.153931 66.982559,604.574097 66.987648,605.687988 
	C67.314629,606.789368 67.641609,607.890686 67.924911,609.499207 
z"/>
<path fill="#02D67B" opacity="1.000000" stroke="none" 
	d="
M67.093796,604.994263 
	C66.982559,604.574097 66.871323,604.153931 67.101295,603.130432 
	C67.483109,598.751831 67.950706,594.922607 67.482292,591.211609 
	C66.200897,581.059509 63.285526,570.965271 63.219200,560.833740 
	C62.922951,515.579407 60.837486,470.195557 69.616714,425.344513 
	C69.806107,424.376923 68.230537,423.063843 67.478317,421.911926 
	C76.634407,377.030304 92.584076,334.677429 115.033920,294.781097 
	C154.700928,224.287643 209.180588,167.998993 278.422699,126.298531 
	C331.984467,94.041443 389.959229,73.832718 452.055054,65.882866 
	C527.127747,56.271641 600.360168,63.996181 671.095215,91.147896 
	C743.582825,118.972328 805.103760,162.635895 855.098572,222.195297 
	C907.871948,285.064850 941.440613,357.037994 955.607422,437.834381 
	C964.486450,488.474152 964.214294,539.233398 955.298401,589.968750 
	C947.048828,636.913025 932.173157,681.514771 909.861389,723.642212 
	C877.021179,785.648804 832.182007,837.300781 775.584167,878.672180 
	C723.634277,916.645935 666.159668,942.855286 603.046204,955.308838 
	C476.902588,980.199463 359.951843,956.959229 253.660675,884.315369 
	C177.599838,832.332214 122.624268,762.813354 88.613144,677.209961 
	C80.355591,656.426331 75.188423,634.414795 68.918625,612.411438 
	C73.067139,608.148376 69.939629,606.615356 67.093796,604.994263 
M293.963928,390.438538 
	C299.045502,387.940521 304.064972,385.305695 309.218597,382.966400 
	C346.836731,365.890778 379.784332,342.413239 405.321381,309.784698 
	C422.552185,287.769012 438.096130,264.435211 454.465546,241.742188 
	C460.892578,232.832352 466.919495,223.538803 474.158417,215.327835 
	C494.437500,192.325699 524.253479,192.858765 542.959106,217.110428 
	C557.082153,235.420761 569.331848,255.164261 583.080017,273.778992 
	C595.534424,290.641907 608.168823,307.474304 622.009766,323.187378 
	C644.044739,348.202698 672.211121,365.166962 701.660583,380.062683 
	C725.427734,392.084198 749.856384,402.873016 771.891174,418.094910 
	C796.497986,435.093567 815.750000,456.434570 825.583130,485.177002 
	C827.805603,491.673401 828.815430,498.584656 830.469849,505.675262 
	C828.299255,505.853546 827.156128,505.890961 826.029846,506.048492 
	C812.537048,507.936157 798.775452,508.726807 785.602051,511.932434 
	C723.645752,527.008850 674.300903,562.406921 632.149597,608.978088 
	C619.630493,622.809937 607.688232,637.200439 594.595337,650.459778 
	C588.796021,656.332947 581.162720,660.777588 573.675354,664.483704 
	C567.393311,667.593384 560.206177,667.163147 554.396484,662.181213 
	C548.462585,657.092773 548.571716,650.038025 550.731445,643.698914 
	C553.267578,636.255127 557.047302,629.144531 561.000366,622.301147 
	C564.518372,616.210999 564.620300,610.518127 560.055786,607.165955 
	C555.018372,603.466675 549.116394,604.521606 544.762695,610.050110 
	C537.650940,619.080994 532.441589,629.189514 530.110901,640.398865 
	C527.573669,652.601196 526.061340,665.014343 523.998413,677.318176 
	C519.615112,703.460266 512.354065,728.569702 498.072662,751.286499 
	C485.927734,770.604980 474.102295,790.124512 462.160522,809.570496 
	C461.281494,811.001953 460.605164,812.557922 459.331024,815.034912 
	C474.942200,815.034912 489.347900,815.034912 504.390411,815.034912 
	C494.993042,842.296814 485.856567,868.801819 476.720123,895.306824 
	C477.372162,895.644409 478.024170,895.981995 478.676208,896.319580 
	C505.199402,860.274719 531.722595,824.229919 558.245728,788.185120 
	C557.859497,787.691406 557.473206,787.197693 557.086914,786.703979 
	C541.386169,786.703979 525.685364,786.703979 509.156494,786.703979 
	C523.123596,751.684753 538.976990,718.188354 543.593872,680.621338 
	C565.917297,691.947083 584.916992,686.050171 602.112732,671.697571 
	C609.611206,665.438782 616.442261,658.246216 622.868958,650.862000 
	C644.764160,625.704895 666.712708,600.628418 693.248657,580.114624 
	C735.947144,547.106262 783.492920,527.216431 838.192993,526.702026 
	C848.008911,526.609680 852.486877,521.650879 851.795227,511.775818 
	C850.585205,494.501038 846.646729,477.910492 838.995605,462.277893 
	C825.145142,433.978607 803.611633,412.604034 777.018738,396.705994 
	C754.896851,383.480804 731.741577,371.946625 708.792114,360.153503 
	C683.896179,347.360077 660.446472,332.668945 640.704163,312.546478 
	C623.114563,294.618195 608.792786,274.141632 594.382996,253.722397 
	C582.190613,236.445358 570.704224,218.610535 557.621338,202.036072 
	C540.079773,179.812881 511.653931,172.875427 485.044556,182.554108 
	C469.900879,188.062302 459.419830,199.216843 450.363251,211.702988 
	C434.032745,234.217590 418.306580,257.169525 402.222717,279.864166 
	C381.128387,309.628693 355.640503,334.706116 323.297119,352.124023 
	C305.998352,361.439941 288.310455,370.031342 270.839325,379.029572 
	C246.127167,391.757202 222.830887,406.490997 203.522690,426.843506 
	C180.211319,451.415771 167.629440,480.593201 166.022629,514.426636 
	C165.644287,522.393311 169.427521,526.060608 177.378250,526.175293 
	C217.389297,526.752563 254.615738,537.400024 289.205597,557.351135 
	C323.440735,577.097656 351.333038,604.140259 376.969452,633.809082 
	C387.415314,645.897949 397.792572,658.132385 409.194153,669.285339 
	C421.159637,680.990051 435.907043,687.225342 453.146271,686.124939 
	C467.865570,685.185242 481.075592,674.823425 483.799133,660.956970 
	C487.732452,640.931641 479.588715,624.093262 468.335846,608.448547 
	C465.861420,605.008423 461.600311,604.042542 457.433105,605.456543 
	C453.097046,606.927856 450.280243,610.387085 450.332886,614.796265 
	C450.369171,617.838562 451.841187,621.246704 453.638672,623.814331 
	C459.386597,632.024902 463.926025,640.593445 463.961578,650.887695 
	C463.997284,661.217529 456.920074,667.207153 446.690979,665.775879 
	C437.207336,664.448975 429.257721,659.902100 422.759308,653.244507 
	C414.158905,644.433350 405.919861,635.241699 397.923645,625.873718 
	C372.739380,596.368774 346.011871,568.579590 313.097321,547.447266 
	C280.567108,526.561646 245.699020,511.946777 206.935577,507.770081 
	C200.705566,507.098785 194.451630,506.649780 187.802383,506.062073 
	C188.073761,503.544800 188.185394,501.584778 188.507568,499.660004 
	C193.118820,472.111420 207.606415,450.281006 227.976196,431.938568 
	C247.373444,414.471863 270.126740,402.280792 293.963928,390.438538 
M577.132751,314.466187 
	C576.582214,311.321014 576.993347,307.484650 575.315308,305.149811 
	C567.872620,294.794189 564.108643,283.439545 563.814087,270.768768 
	C563.709106,266.254852 561.182983,263.270203 556.801636,262.215851 
	C552.239746,261.118073 548.448547,262.672302 546.246033,266.797333 
	C545.036499,269.062836 544.124390,271.773438 544.049866,274.311859 
	C543.593933,289.833496 548.790405,303.711548 557.571838,316.205872 
	C563.201233,324.215607 571.694824,323.522858 577.132751,314.466187 
M465.436615,299.920502 
	C467.275299,291.006897 469.658478,282.160156 470.764313,273.156555 
	C471.521149,266.994202 466.370483,262.471924 460.237946,262.294189 
	C454.906158,262.139618 450.652802,266.454163 450.169678,272.585022 
	C449.921539,275.734344 449.974243,278.917755 449.558533,282.041504 
	C448.388397,290.833313 444.413177,298.469086 439.540222,305.733032 
	C437.085358,309.392426 436.718689,313.768158 439.416687,316.952179 
	C441.412750,319.307831 445.088379,321.015808 448.228943,321.442261 
	C452.797333,322.062561 455.985870,318.670837 458.091949,314.948975 
	C460.706573,310.328400 462.819519,305.423950 465.436615,299.920502 
M476.487732,897.547363 
	C476.487732,897.547363 476.449646,897.437500 476.487732,897.547363 
z"/>
<path fill="#12DA82" opacity="1.000000" stroke="none" 
	d="
M67.301590,422.225586 
	C68.230537,423.063843 69.806107,424.376923 69.616714,425.344513 
	C60.837486,470.195557 62.922951,515.579407 63.219200,560.833740 
	C63.285526,570.965271 66.200897,581.059509 67.482292,591.211609 
	C67.950706,594.922607 67.483109,598.751831 67.118774,602.803528 
	C66.528595,602.264709 66.262154,601.449402 66.190224,600.203308 
	C66.251358,599.516113 66.117989,599.259705 65.984627,599.003357 
	C64.014214,587.046448 61.541599,575.146667 60.173920,563.121216 
	C56.947155,534.749695 56.518978,506.235718 59.191620,477.832520 
	C60.933914,459.316559 64.419975,440.964661 67.301590,422.225586 
z"/>
<path fill="#12DA82" opacity="1.000000" stroke="none" 
	d="
M67.040726,605.341125 
	C69.939629,606.615356 73.067139,608.148376 68.873703,612.000793 
	C68.342270,611.610229 68.174141,611.073853 68.202492,610.147583 
	C68.255516,609.502502 68.112053,609.247253 67.968590,608.992065 
	C67.641609,607.890686 67.314629,606.789368 67.040726,605.341125 
z"/>
<path fill="#02D67B" opacity="1.000000" stroke="none" 
	d="
M65.948372,599.254028 
	C66.117989,599.259705 66.251358,599.516113 66.239288,599.875000 
	C66.033272,599.819824 65.972694,599.662231 65.948372,599.254028 
z"/>
<path fill="#02D67B" opacity="1.000000" stroke="none" 
	d="
M67.946747,609.245605 
	C68.112053,609.247253 68.255516,609.502502 68.256523,609.864746 
	C68.051018,609.814331 67.987968,609.656799 67.946747,609.245605 
z"/>
<path fill="#1B1D19" opacity="1.000000" stroke="none" 
	d="
M293.632690,390.610748 
	C270.126740,402.280792 247.373444,414.471863 227.976196,431.938568 
	C207.606415,450.281006 193.118820,472.111420 188.507568,499.660004 
	C188.185394,501.584778 188.073761,503.544800 187.802383,506.062073 
	C194.451630,506.649780 200.705566,507.098785 206.935577,507.770081 
	C245.699020,511.946777 280.567108,526.561646 313.097321,547.447266 
	C346.011871,568.579590 372.739380,596.368774 397.923645,625.873718 
	C405.919861,635.241699 414.158905,644.433350 422.759308,653.244507 
	C429.257721,659.902100 437.207336,664.448975 446.690979,665.775879 
	C456.920074,667.207153 463.997284,661.217529 463.961578,650.887695 
	C463.926025,640.593445 459.386597,632.024902 453.638672,623.814331 
	C451.841187,621.246704 450.369171,617.838562 450.332886,614.796265 
	C450.280243,610.387085 453.097046,606.927856 457.433105,605.456543 
	C461.600311,604.042542 465.861420,605.008423 468.335846,608.448547 
	C479.588715,624.093262 487.732452,640.931641 483.799133,660.956970 
	C481.075592,674.823425 467.865570,685.185242 453.146271,686.124939 
	C435.907043,687.225342 421.159637,680.990051 409.194153,669.285339 
	C397.792572,658.132385 387.415314,645.897949 376.969452,633.809082 
	C351.333038,604.140259 323.440735,577.097656 289.205597,557.351135 
	C254.615738,537.400024 217.389297,526.752563 177.378250,526.175293 
	C169.427521,526.060608 165.644287,522.393311 166.022629,514.426636 
	C167.629440,480.593201 180.211319,451.415771 203.522690,426.843506 
	C222.830887,406.490997 246.127167,391.757202 270.839325,379.029572 
	C288.310455,370.031342 305.998352,361.439941 323.297119,352.124023 
	C355.640503,334.706116 381.128387,309.628693 402.222717,279.864166 
	C418.306580,257.169525 434.032745,234.217590 450.363251,211.702988 
	C459.419830,199.216843 469.900879,188.062302 485.044556,182.554108 
	C511.653931,172.875427 540.079773,179.812881 557.621338,202.036072 
	C570.704224,218.610535 582.190613,236.445358 594.382996,253.722397 
	C608.792786,274.141632 623.114563,294.618195 640.704163,312.546478 
	C660.446472,332.668945 683.896179,347.360077 708.792114,360.153503 
	C731.741577,371.946625 754.896851,383.480804 777.018738,396.705994 
	C803.611633,412.604034 825.145142,433.978607 838.995605,462.277893 
	C846.646729,477.910492 850.585205,494.501038 851.795227,511.775818 
	C852.486877,521.650879 848.008911,526.609680 838.192993,526.702026 
	C783.492920,527.216431 735.947144,547.106262 693.248657,580.114624 
	C666.712708,600.628418 644.764160,625.704895 622.868958,650.862000 
	C616.442261,658.246216 609.611206,665.438782 602.112732,671.697571 
	C584.916992,686.050171 565.917297,691.947083 543.593872,680.621338 
	C538.976990,718.188354 523.123596,751.684753 509.156494,786.703979 
	C525.685364,786.703979 541.386169,786.703979 557.086914,786.703979 
	C557.473206,787.197693 557.859497,787.691406 558.245728,788.185120 
	C531.722595,824.229919 505.199402,860.274719 478.676208,896.319580 
	C478.024170,895.981995 477.372162,895.644409 476.720123,895.306824 
	C485.856567,868.801819 494.993042,842.296814 504.390411,815.034912 
	C489.347900,815.034912 474.942200,815.034912 459.331024,815.034912 
	C460.605164,812.557922 461.281494,811.001953 462.160522,809.570496 
	C474.102295,790.124512 485.927734,770.604980 498.072662,751.286499 
	C512.354065,728.569702 519.615112,703.460266 523.998413,677.318176 
	C526.061340,665.014343 527.573669,652.601196 530.110901,640.398865 
	C532.441589,629.189514 537.650940,619.080994 544.762695,610.050110 
	C549.116394,604.521606 555.018372,603.466675 560.055786,607.165955 
	C564.620300,610.518127 564.518372,616.210999 561.000366,622.301147 
	C557.047302,629.144531 553.267578,636.255127 550.731445,643.698914 
	C548.571716,650.038025 548.462585,657.092773 554.396484,662.181213 
	C560.206177,667.163147 567.393311,667.593384 573.675354,664.483704 
	C581.162720,660.777588 588.796021,656.332947 594.595337,650.459778 
	C607.688232,637.200439 619.630493,622.809937 632.149597,608.978088 
	C674.300903,562.406921 723.645752,527.008850 785.602051,511.932434 
	C798.775452,508.726807 812.537048,507.936157 826.029846,506.048492 
	C827.156128,505.890961 828.299255,505.853546 830.469849,505.675262 
	C828.815430,498.584656 827.805603,491.673401 825.583130,485.177002 
	C815.750000,456.434570 796.497986,435.093567 771.891174,418.094910 
	C749.856384,402.873016 725.427734,392.084198 701.660583,380.062683 
	C672.211121,365.166962 644.044739,348.202698 622.009766,323.187378 
	C608.168823,307.474304 595.534424,290.641907 583.080017,273.778992 
	C569.331848,255.164261 557.082153,235.420761 542.959106,217.110428 
	C524.253479,192.858765 494.437500,192.325699 474.158417,215.327835 
	C466.919495,223.538803 460.892578,232.832352 454.465546,241.742188 
	C438.096130,264.435211 422.552185,287.769012 405.321381,309.784698 
	C379.784332,342.413239 346.836731,365.890778 309.218597,382.966400 
	C304.064972,385.305695 299.045502,387.940521 293.632690,390.610748 
z"/>
<path fill="#1B1F1A" opacity="1.000000" stroke="none" 
	d="
M577.006470,314.822327 
	C571.694824,323.522858 563.201233,324.215607 557.571838,316.205872 
	C548.790405,303.711548 543.593933,289.833496 544.049866,274.311859 
	C544.124390,271.773438 545.036499,269.062836 546.246033,266.797333 
	C548.448547,262.672302 552.239746,261.118073 556.801636,262.215851 
	C561.182983,263.270203 563.709106,266.254852 563.814087,270.768768 
	C564.108643,283.439545 567.872620,294.794189 575.315308,305.149811 
	C576.993347,307.484650 576.582214,311.321014 577.006470,314.822327 
z"/>
<path fill="#1B1F1A" opacity="1.000000" stroke="none" 
	d="
M465.292908,300.281311 
	C462.819519,305.423950 460.706573,310.328400 458.091949,314.948975 
	C455.985870,318.670837 452.797333,322.062561 448.228943,321.442261 
	C445.088379,321.015808 441.412750,319.307831 439.416687,316.952179 
	C436.718689,313.768158 437.085358,309.392426 439.540222,305.733032 
	C444.413177,298.469086 448.388397,290.833313 449.558533,282.041504 
	C449.974243,278.917755 449.921539,275.734344 450.169678,272.585022 
	C450.652802,266.454163 454.906158,262.139618 460.237946,262.294189 
	C466.370483,262.471924 471.521149,266.994202 470.764313,273.156555 
	C469.658478,282.160156 467.275299,291.006897 465.292908,300.281311 
z"/>
<path fill="#1B1D19" opacity="1.000000" stroke="none" 
	d="
M476.468689,897.492432 
	C476.449646,897.437500 476.487732,897.547363 476.468689,897.492432 
z"/>
</svg>